<mxfile host="app.diagrams.net" modified="2023-11-02T02:49:00.942Z" agent="Mozilla/5.0 (Windows NT 10.0; Win64; x64) AppleWebKit/537.36 (KHTML, like Gecko) Chrome/118.0.0.0 Safari/537.36 Edg/118.0.2088.76" etag="LqtFYOhkjCpNl3Tz5JsE" version="22.0.8" type="github">
  <diagram name="Page-1" id="9PU9EuGCnXwdUuO0IcID">
    <mxGraphModel dx="2698" dy="1047" grid="1" gridSize="10" guides="1" tooltips="1" connect="1" arrows="1" fold="1" page="1" pageScale="1" pageWidth="850" pageHeight="1100" math="0" shadow="0">
      <root>
        <mxCell id="0" />
        <mxCell id="1" parent="0" />
        <mxCell id="eYLm4bAdgKjMFK-X197l-1" value="General Script" style="ellipse;whiteSpace=wrap;html=1;fillColor=#d5e8d4;strokeColor=#82b366;" vertex="1" parent="1">
          <mxGeometry x="80" y="160" width="120" height="80" as="geometry" />
        </mxCell>
        <mxCell id="eYLm4bAdgKjMFK-X197l-2" value="Player&amp;nbsp;" style="ellipse;whiteSpace=wrap;html=1;fillColor=#d5e8d4;strokeColor=#82b366;" vertex="1" parent="1">
          <mxGeometry x="310" y="160" width="120" height="80" as="geometry" />
        </mxCell>
        <mxCell id="eYLm4bAdgKjMFK-X197l-4" value="Weapon" style="ellipse;whiteSpace=wrap;html=1;fillColor=#d5e8d4;strokeColor=#82b366;" vertex="1" parent="1">
          <mxGeometry x="1180" y="150" width="120" height="80" as="geometry" />
        </mxCell>
        <mxCell id="eYLm4bAdgKjMFK-X197l-6" value="Singleton" style="ellipse;whiteSpace=wrap;html=1;fillColor=#d5e8d4;strokeColor=#82b366;" vertex="1" parent="1">
          <mxGeometry x="-250" y="300" width="120" height="80" as="geometry" />
        </mxCell>
        <mxCell id="eYLm4bAdgKjMFK-X197l-7" value="TouchUtility" style="ellipse;whiteSpace=wrap;html=1;fillColor=#d5e8d4;strokeColor=#82b366;" vertex="1" parent="1">
          <mxGeometry x="80" y="300" width="120" height="80" as="geometry" />
        </mxCell>
        <mxCell id="eYLm4bAdgKjMFK-X197l-8" value="Game Manager" style="ellipse;whiteSpace=wrap;html=1;fillColor=#d5e8d4;strokeColor=#82b366;" vertex="1" parent="1">
          <mxGeometry x="-80" y="300" width="120" height="80" as="geometry" />
        </mxCell>
        <mxCell id="eYLm4bAdgKjMFK-X197l-9" value="1. Spawn Enemey *" style="shape=parallelogram;perimeter=parallelogramPerimeter;whiteSpace=wrap;html=1;fixedSize=1;fillColor=#f8cecc;strokeColor=#b85450;" vertex="1" parent="1">
          <mxGeometry x="-270" y="570" width="150" height="80" as="geometry" />
        </mxCell>
        <mxCell id="eYLm4bAdgKjMFK-X197l-10" value="Wave*" style="ellipse;whiteSpace=wrap;html=1;fillColor=#f8cecc;strokeColor=#b85450;" vertex="1" parent="1">
          <mxGeometry x="-190" y="430" width="120" height="80" as="geometry" />
        </mxCell>
        <mxCell id="eYLm4bAdgKjMFK-X197l-11" value="1. Game Over *&lt;br&gt;2. Script Manager*" style="shape=parallelogram;perimeter=parallelogramPerimeter;whiteSpace=wrap;html=1;fixedSize=1;fillColor=#f8cecc;strokeColor=#b85450;" vertex="1" parent="1">
          <mxGeometry y="570" width="150" height="80" as="geometry" />
        </mxCell>
        <mxCell id="eYLm4bAdgKjMFK-X197l-12" value="Game Function*" style="ellipse;whiteSpace=wrap;html=1;fillColor=#f8cecc;strokeColor=#b85450;" vertex="1" parent="1">
          <mxGeometry x="10" y="430" width="120" height="80" as="geometry" />
        </mxCell>
        <mxCell id="eYLm4bAdgKjMFK-X197l-15" value="" style="endArrow=none;html=1;rounded=0;exitX=0.5;exitY=0;exitDx=0;exitDy=0;" edge="1" parent="1" source="eYLm4bAdgKjMFK-X197l-9">
          <mxGeometry width="50" height="50" relative="1" as="geometry">
            <mxPoint x="-200" y="560" as="sourcePoint" />
            <mxPoint x="-150" y="510" as="targetPoint" />
          </mxGeometry>
        </mxCell>
        <mxCell id="eYLm4bAdgKjMFK-X197l-18" value="" style="endArrow=none;html=1;rounded=0;exitX=0.633;exitY=0.013;exitDx=0;exitDy=0;exitPerimeter=0;" edge="1" parent="1" source="eYLm4bAdgKjMFK-X197l-11">
          <mxGeometry width="50" height="50" relative="1" as="geometry">
            <mxPoint x="35" y="570" as="sourcePoint" />
            <mxPoint x="80" y="510" as="targetPoint" />
          </mxGeometry>
        </mxCell>
        <mxCell id="eYLm4bAdgKjMFK-X197l-19" value="" style="endArrow=none;html=1;rounded=0;exitX=0.442;exitY=0;exitDx=0;exitDy=0;exitPerimeter=0;" edge="1" parent="1" source="eYLm4bAdgKjMFK-X197l-12">
          <mxGeometry width="50" height="50" relative="1" as="geometry">
            <mxPoint x="35" y="430" as="sourcePoint" />
            <mxPoint x="20" y="369" as="targetPoint" />
          </mxGeometry>
        </mxCell>
        <mxCell id="eYLm4bAdgKjMFK-X197l-20" value="" style="endArrow=none;html=1;rounded=0;exitX=0.708;exitY=0.013;exitDx=0;exitDy=0;exitPerimeter=0;entryX=0.208;entryY=0.888;entryDx=0;entryDy=0;entryPerimeter=0;" edge="1" parent="1" source="eYLm4bAdgKjMFK-X197l-10" target="eYLm4bAdgKjMFK-X197l-8">
          <mxGeometry width="50" height="50" relative="1" as="geometry">
            <mxPoint x="-17" y="430" as="sourcePoint" />
            <mxPoint x="-60" y="370" as="targetPoint" />
          </mxGeometry>
        </mxCell>
        <mxCell id="eYLm4bAdgKjMFK-X197l-21" value="" style="endArrow=none;html=1;rounded=0;exitX=0.701;exitY=-0.022;exitDx=0;exitDy=0;exitPerimeter=0;entryX=0.208;entryY=0.888;entryDx=0;entryDy=0;entryPerimeter=0;" edge="1" parent="1" source="eYLm4bAdgKjMFK-X197l-6">
          <mxGeometry width="50" height="50" relative="1" as="geometry">
            <mxPoint x="30" y="260" as="sourcePoint" />
            <mxPoint x="80" y="200" as="targetPoint" />
          </mxGeometry>
        </mxCell>
        <mxCell id="eYLm4bAdgKjMFK-X197l-22" value="" style="endArrow=none;html=1;rounded=0;exitX=0.706;exitY=0.043;exitDx=0;exitDy=0;exitPerimeter=0;entryX=0;entryY=1;entryDx=0;entryDy=0;" edge="1" parent="1" source="eYLm4bAdgKjMFK-X197l-8" target="eYLm4bAdgKjMFK-X197l-1">
          <mxGeometry width="50" height="50" relative="1" as="geometry">
            <mxPoint x="-156" y="308" as="sourcePoint" />
            <mxPoint x="90" y="210" as="targetPoint" />
          </mxGeometry>
        </mxCell>
        <mxCell id="eYLm4bAdgKjMFK-X197l-23" value="" style="endArrow=none;html=1;rounded=0;entryX=0.741;entryY=0.951;entryDx=0;entryDy=0;entryPerimeter=0;" edge="1" parent="1" source="eYLm4bAdgKjMFK-X197l-7" target="eYLm4bAdgKjMFK-X197l-1">
          <mxGeometry width="50" height="50" relative="1" as="geometry">
            <mxPoint x="20" y="310" as="sourcePoint" />
            <mxPoint x="100" y="220" as="targetPoint" />
          </mxGeometry>
        </mxCell>
        <mxCell id="eYLm4bAdgKjMFK-X197l-24" value="Animation Controller" style="ellipse;whiteSpace=wrap;html=1;fillColor=#f8cecc;strokeColor=#b85450;" vertex="1" parent="1">
          <mxGeometry x="-410" y="300" width="120" height="80" as="geometry" />
        </mxCell>
        <mxCell id="eYLm4bAdgKjMFK-X197l-25" value="" style="endArrow=none;html=1;rounded=0;exitX=0.5;exitY=0;exitDx=0;exitDy=0;" edge="1" parent="1" source="eYLm4bAdgKjMFK-X197l-24">
          <mxGeometry width="50" height="50" relative="1" as="geometry">
            <mxPoint x="-220" y="268" as="sourcePoint" />
            <mxPoint x="90" y="180" as="targetPoint" />
          </mxGeometry>
        </mxCell>
        <mxCell id="eYLm4bAdgKjMFK-X197l-26" value="Player Health" style="ellipse;whiteSpace=wrap;html=1;fillColor=#d5e8d4;strokeColor=#82b366;" vertex="1" parent="1">
          <mxGeometry x="380" y="300" width="120" height="80" as="geometry" />
        </mxCell>
        <mxCell id="eYLm4bAdgKjMFK-X197l-27" value="Player Controller" style="ellipse;whiteSpace=wrap;html=1;fillColor=#d5e8d4;strokeColor=#82b366;" vertex="1" parent="1">
          <mxGeometry x="250" y="300" width="120" height="80" as="geometry" />
        </mxCell>
        <mxCell id="eYLm4bAdgKjMFK-X197l-28" value="" style="endArrow=none;html=1;rounded=0;entryX=0.741;entryY=0.951;entryDx=0;entryDy=0;entryPerimeter=0;" edge="1" parent="1">
          <mxGeometry width="50" height="50" relative="1" as="geometry">
            <mxPoint x="320" y="300" as="sourcePoint" />
            <mxPoint x="338" y="235" as="targetPoint" />
          </mxGeometry>
        </mxCell>
        <mxCell id="eYLm4bAdgKjMFK-X197l-29" value="" style="endArrow=none;html=1;rounded=0;entryX=0.741;entryY=0.951;entryDx=0;entryDy=0;entryPerimeter=0;exitX=0.5;exitY=0;exitDx=0;exitDy=0;exitPerimeter=0;" edge="1" parent="1" source="eYLm4bAdgKjMFK-X197l-26">
          <mxGeometry width="50" height="50" relative="1" as="geometry">
            <mxPoint x="470" y="295" as="sourcePoint" />
            <mxPoint x="410" y="230" as="targetPoint" />
          </mxGeometry>
        </mxCell>
        <mxCell id="eYLm4bAdgKjMFK-X197l-30" value="Weapon Stats" style="ellipse;whiteSpace=wrap;html=1;fillColor=#d5e8d4;strokeColor=#82b366;" vertex="1" parent="1">
          <mxGeometry x="1155" y="290" width="120" height="80" as="geometry" />
        </mxCell>
        <mxCell id="eYLm4bAdgKjMFK-X197l-35" value="Enemy" style="ellipse;whiteSpace=wrap;html=1;fillColor=#d5e8d4;strokeColor=#82b366;" vertex="1" parent="1">
          <mxGeometry x="600" y="160" width="120" height="80" as="geometry" />
        </mxCell>
        <mxCell id="eYLm4bAdgKjMFK-X197l-36" value="Enemy Behavior (Base)" style="ellipse;whiteSpace=wrap;html=1;fillColor=#f8cecc;strokeColor=#b85450;" vertex="1" parent="1">
          <mxGeometry x="670" y="300" width="120" height="80" as="geometry" />
        </mxCell>
        <mxCell id="eYLm4bAdgKjMFK-X197l-37" value="Enemy Health" style="ellipse;whiteSpace=wrap;html=1;fillColor=#d5e8d4;strokeColor=#82b366;" vertex="1" parent="1">
          <mxGeometry x="540" y="300" width="120" height="80" as="geometry" />
        </mxCell>
        <mxCell id="eYLm4bAdgKjMFK-X197l-38" value="" style="endArrow=none;html=1;rounded=0;entryX=0.741;entryY=0.951;entryDx=0;entryDy=0;entryPerimeter=0;" edge="1" parent="1">
          <mxGeometry width="50" height="50" relative="1" as="geometry">
            <mxPoint x="610" y="300" as="sourcePoint" />
            <mxPoint x="628" y="235" as="targetPoint" />
          </mxGeometry>
        </mxCell>
        <mxCell id="eYLm4bAdgKjMFK-X197l-39" value="" style="endArrow=none;html=1;rounded=0;entryX=0.741;entryY=0.951;entryDx=0;entryDy=0;entryPerimeter=0;exitX=0.5;exitY=0;exitDx=0;exitDy=0;exitPerimeter=0;" edge="1" source="eYLm4bAdgKjMFK-X197l-36" parent="1">
          <mxGeometry width="50" height="50" relative="1" as="geometry">
            <mxPoint x="760" y="295" as="sourcePoint" />
            <mxPoint x="700" y="230" as="targetPoint" />
          </mxGeometry>
        </mxCell>
        <mxCell id="eYLm4bAdgKjMFK-X197l-42" value="" style="endArrow=none;html=1;rounded=0;entryX=1;entryY=1;entryDx=0;entryDy=0;exitX=0.5;exitY=0;exitDx=0;exitDy=0;exitPerimeter=0;" edge="1" source="eYLm4bAdgKjMFK-X197l-43" parent="1" target="eYLm4bAdgKjMFK-X197l-36">
          <mxGeometry width="50" height="50" relative="1" as="geometry">
            <mxPoint x="840" y="460.86" as="sourcePoint" />
            <mxPoint x="780" y="395.86" as="targetPoint" />
          </mxGeometry>
        </mxCell>
        <mxCell id="eYLm4bAdgKjMFK-X197l-43" value="Drone Behavior*" style="ellipse;whiteSpace=wrap;html=1;fillColor=#d5e8d4;strokeColor=#82b366;" vertex="1" parent="1">
          <mxGeometry x="820" y="475.86" width="120" height="80" as="geometry" />
        </mxCell>
        <mxCell id="eYLm4bAdgKjMFK-X197l-44" value="Suicide Car Behavior" style="ellipse;whiteSpace=wrap;html=1;fillColor=#d5e8d4;strokeColor=#82b366;" vertex="1" parent="1">
          <mxGeometry x="700" y="475.86" width="120" height="80" as="geometry" />
        </mxCell>
        <mxCell id="eYLm4bAdgKjMFK-X197l-45" value="Bomb Behavior" style="ellipse;whiteSpace=wrap;html=1;fillColor=#d5e8d4;strokeColor=#82b366;" vertex="1" parent="1">
          <mxGeometry x="460" y="475.86" width="120" height="80" as="geometry" />
        </mxCell>
        <mxCell id="eYLm4bAdgKjMFK-X197l-46" value="Tank Behavior" style="ellipse;whiteSpace=wrap;html=1;fillColor=#d5e8d4;strokeColor=#82b366;" vertex="1" parent="1">
          <mxGeometry x="580" y="475.86" width="120" height="80" as="geometry" />
        </mxCell>
        <mxCell id="eYLm4bAdgKjMFK-X197l-47" value="" style="endArrow=none;html=1;rounded=0;entryX=0.614;entryY=0.991;entryDx=0;entryDy=0;entryPerimeter=0;exitX=0.5;exitY=0;exitDx=0;exitDy=0;" edge="1" parent="1" source="eYLm4bAdgKjMFK-X197l-44" target="eYLm4bAdgKjMFK-X197l-36">
          <mxGeometry width="50" height="50" relative="1" as="geometry">
            <mxPoint x="840" y="475.86" as="sourcePoint" />
            <mxPoint x="740" y="395.86" as="targetPoint" />
          </mxGeometry>
        </mxCell>
        <mxCell id="eYLm4bAdgKjMFK-X197l-48" value="" style="endArrow=none;html=1;rounded=0;exitX=0.561;exitY=-0.062;exitDx=0;exitDy=0;exitPerimeter=0;" edge="1" parent="1" source="eYLm4bAdgKjMFK-X197l-46">
          <mxGeometry width="50" height="50" relative="1" as="geometry">
            <mxPoint x="708" y="475.86" as="sourcePoint" />
            <mxPoint x="720" y="380" as="targetPoint" />
          </mxGeometry>
        </mxCell>
        <mxCell id="eYLm4bAdgKjMFK-X197l-49" value="" style="endArrow=none;html=1;rounded=0;entryX=0;entryY=1;entryDx=0;entryDy=0;exitX=0.5;exitY=0;exitDx=0;exitDy=0;" edge="1" parent="1" target="eYLm4bAdgKjMFK-X197l-36">
          <mxGeometry width="50" height="50" relative="1" as="geometry">
            <mxPoint x="530" y="475.86" as="sourcePoint" />
            <mxPoint x="717.5735931288068" y="384.1442712474617" as="targetPoint" />
          </mxGeometry>
        </mxCell>
        <mxCell id="eYLm4bAdgKjMFK-X197l-50" value="1. Tạo Abstract Class&lt;br&gt;2. Xác định đặc tính chính của Enemy&amp;nbsp;&lt;br&gt;3. Bỏ Script Health&amp;nbsp;" style="whiteSpace=wrap;html=1;rounded=1;arcSize=50;align=center;verticalAlign=middle;strokeWidth=1;autosize=1;spacing=4;treeFolding=1;treeMoving=1;newEdgeStyle={&quot;edgeStyle&quot;:&quot;entityRelationEdgeStyle&quot;,&quot;startArrow&quot;:&quot;none&quot;,&quot;endArrow&quot;:&quot;none&quot;,&quot;segment&quot;:10,&quot;curved&quot;:1,&quot;sourcePerimeterSpacing&quot;:0,&quot;targetPerimeterSpacing&quot;:0};" vertex="1" parent="1">
          <mxGeometry x="520" y="593" width="355" height="60" as="geometry" />
        </mxCell>
        <mxCell id="eYLm4bAdgKjMFK-X197l-51" value="" style="edgeStyle=entityRelationEdgeStyle;startArrow=none;endArrow=none;segment=10;curved=1;sourcePerimeterSpacing=0;targetPerimeterSpacing=0;rounded=0;" edge="1" target="eYLm4bAdgKjMFK-X197l-50" parent="1">
          <mxGeometry relative="1" as="geometry">
            <mxPoint x="610" y="650" as="sourcePoint" />
          </mxGeometry>
        </mxCell>
        <mxCell id="eYLm4bAdgKjMFK-X197l-52" value="Normal Enemy Behavior" style="ellipse;whiteSpace=wrap;html=1;fillColor=#f8cecc;strokeColor=#b85450;" vertex="1" parent="1">
          <mxGeometry x="940" y="475.86" width="120" height="80" as="geometry" />
        </mxCell>
        <mxCell id="eYLm4bAdgKjMFK-X197l-53" value="" style="endArrow=none;html=1;rounded=0;entryX=1;entryY=1;entryDx=0;entryDy=0;exitX=0.5;exitY=0;exitDx=0;exitDy=0;" edge="1" parent="1" source="eYLm4bAdgKjMFK-X197l-52">
          <mxGeometry width="50" height="50" relative="1" as="geometry">
            <mxPoint x="898" y="458" as="sourcePoint" />
            <mxPoint x="790" y="350" as="targetPoint" />
          </mxGeometry>
        </mxCell>
        <mxCell id="eYLm4bAdgKjMFK-X197l-54" value="Bullet Check Collision" style="ellipse;whiteSpace=wrap;html=1;fillColor=#d5e8d4;strokeColor=#82b366;" vertex="1" parent="1">
          <mxGeometry x="1020" y="290" width="120" height="80" as="geometry" />
        </mxCell>
        <mxCell id="eYLm4bAdgKjMFK-X197l-55" value="Machine Gun Rotation* (Đổi tên)" style="ellipse;whiteSpace=wrap;html=1;fillColor=#f8cecc;strokeColor=#b85450;" vertex="1" parent="1">
          <mxGeometry x="1280" y="290" width="120" height="80" as="geometry" />
        </mxCell>
        <mxCell id="eYLm4bAdgKjMFK-X197l-56" value="Reset Bullet Trail" style="ellipse;whiteSpace=wrap;html=1;fillColor=#d5e8d4;strokeColor=#82b366;" vertex="1" parent="1">
          <mxGeometry x="890" y="290" width="120" height="80" as="geometry" />
        </mxCell>
        <mxCell id="eYLm4bAdgKjMFK-X197l-59" value="" style="endArrow=none;html=1;rounded=0;entryX=0.741;entryY=0.951;entryDx=0;entryDy=0;entryPerimeter=0;exitX=0.627;exitY=-0.029;exitDx=0;exitDy=0;exitPerimeter=0;" edge="1" parent="1" source="eYLm4bAdgKjMFK-X197l-55">
          <mxGeometry width="50" height="50" relative="1" as="geometry">
            <mxPoint x="1310" y="290" as="sourcePoint" />
            <mxPoint x="1280" y="220" as="targetPoint" />
          </mxGeometry>
        </mxCell>
        <mxCell id="eYLm4bAdgKjMFK-X197l-60" value="" style="endArrow=none;html=1;rounded=0;entryX=0.741;entryY=0.951;entryDx=0;entryDy=0;entryPerimeter=0;exitX=0.5;exitY=0;exitDx=0;exitDy=0;" edge="1" parent="1" source="eYLm4bAdgKjMFK-X197l-30">
          <mxGeometry width="50" height="50" relative="1" as="geometry">
            <mxPoint x="1300" y="298" as="sourcePoint" />
            <mxPoint x="1225" y="230" as="targetPoint" />
          </mxGeometry>
        </mxCell>
        <mxCell id="eYLm4bAdgKjMFK-X197l-61" value="" style="endArrow=none;html=1;rounded=0;entryX=0.741;entryY=0.951;entryDx=0;entryDy=0;entryPerimeter=0;exitX=0.758;exitY=-0.003;exitDx=0;exitDy=0;exitPerimeter=0;" edge="1" parent="1" source="eYLm4bAdgKjMFK-X197l-54">
          <mxGeometry width="50" height="50" relative="1" as="geometry">
            <mxPoint x="1170" y="260" as="sourcePoint" />
            <mxPoint x="1180" y="200" as="targetPoint" />
          </mxGeometry>
        </mxCell>
        <mxCell id="eYLm4bAdgKjMFK-X197l-62" value="" style="endArrow=none;html=1;rounded=0;entryX=0;entryY=0;entryDx=0;entryDy=0;exitX=0.666;exitY=-0.029;exitDx=0;exitDy=0;exitPerimeter=0;" edge="1" parent="1" source="eYLm4bAdgKjMFK-X197l-56" target="eYLm4bAdgKjMFK-X197l-4">
          <mxGeometry width="50" height="50" relative="1" as="geometry">
            <mxPoint x="1111" y="270" as="sourcePoint" />
            <mxPoint x="1180" y="180" as="targetPoint" />
          </mxGeometry>
        </mxCell>
        <mxCell id="eYLm4bAdgKjMFK-X197l-63" value="Pooling" style="ellipse;whiteSpace=wrap;html=1;fillColor=#d5e8d4;strokeColor=#82b366;" vertex="1" parent="1">
          <mxGeometry x="1570" y="150" width="120" height="80" as="geometry" />
        </mxCell>
        <mxCell id="eYLm4bAdgKjMFK-X197l-64" value="Effect Pool" style="ellipse;whiteSpace=wrap;html=1;fillColor=#6a00ff;strokeColor=#3700CC;fontColor=#ffffff;" vertex="1" parent="1">
          <mxGeometry x="1450" y="290" width="120" height="80" as="geometry" />
        </mxCell>
        <mxCell id="eYLm4bAdgKjMFK-X197l-66" value="Bullet Pooling" style="ellipse;whiteSpace=wrap;html=1;fillColor=#d5e8d4;strokeColor=#82b366;" vertex="1" parent="1">
          <mxGeometry x="1680" y="290" width="120" height="80" as="geometry" />
        </mxCell>
        <mxCell id="eYLm4bAdgKjMFK-X197l-68" value="" style="endArrow=none;html=1;rounded=0;entryX=0.741;entryY=0.951;entryDx=0;entryDy=0;entryPerimeter=0;exitX=0.443;exitY=0.001;exitDx=0;exitDy=0;exitPerimeter=0;" edge="1" source="eYLm4bAdgKjMFK-X197l-66" parent="1">
          <mxGeometry width="50" height="50" relative="1" as="geometry">
            <mxPoint x="1700" y="290" as="sourcePoint" />
            <mxPoint x="1670" y="220" as="targetPoint" />
          </mxGeometry>
        </mxCell>
        <mxCell id="eYLm4bAdgKjMFK-X197l-69" value="" style="endArrow=none;html=1;rounded=0;entryX=0;entryY=0.625;entryDx=0;entryDy=0;entryPerimeter=0;exitX=0.5;exitY=0;exitDx=0;exitDy=0;" edge="1" source="eYLm4bAdgKjMFK-X197l-64" parent="1" target="eYLm4bAdgKjMFK-X197l-63">
          <mxGeometry width="50" height="50" relative="1" as="geometry">
            <mxPoint x="1690" y="298" as="sourcePoint" />
            <mxPoint x="1615" y="230" as="targetPoint" />
          </mxGeometry>
        </mxCell>
        <mxCell id="eYLm4bAdgKjMFK-X197l-72" value="Bonus" style="ellipse;whiteSpace=wrap;html=1;fillColor=#d5e8d4;strokeColor=#82b366;" vertex="1" parent="1">
          <mxGeometry x="1870" y="160" width="120" height="80" as="geometry" />
        </mxCell>
        <mxCell id="eYLm4bAdgKjMFK-X197l-73" value="Bonus" style="ellipse;whiteSpace=wrap;html=1;fillColor=#f8cecc;strokeColor=#b85450;" vertex="1" parent="1">
          <mxGeometry x="1960" y="300" width="120" height="80" as="geometry" />
        </mxCell>
        <mxCell id="eYLm4bAdgKjMFK-X197l-76" value="" style="endArrow=none;html=1;rounded=0;entryX=0.5;entryY=1;entryDx=0;entryDy=0;exitX=0.5;exitY=0;exitDx=0;exitDy=0;" edge="1" source="eYLm4bAdgKjMFK-X197l-73" target="eYLm4bAdgKjMFK-X197l-72" parent="1">
          <mxGeometry width="50" height="50" relative="1" as="geometry">
            <mxPoint x="2030" y="308" as="sourcePoint" />
            <mxPoint x="1955" y="240" as="targetPoint" />
          </mxGeometry>
        </mxCell>
        <mxCell id="eYLm4bAdgKjMFK-X197l-77" value="Enemy Pool" style="ellipse;whiteSpace=wrap;html=1;fillColor=#d5e8d4;strokeColor=#82b366;" vertex="1" parent="1">
          <mxGeometry x="1570" y="290" width="120" height="80" as="geometry" />
        </mxCell>
        <mxCell id="eYLm4bAdgKjMFK-X197l-78" value="" style="endArrow=none;html=1;rounded=0;entryX=0;entryY=0.625;entryDx=0;entryDy=0;entryPerimeter=0;" edge="1" parent="1" source="eYLm4bAdgKjMFK-X197l-77">
          <mxGeometry width="50" height="50" relative="1" as="geometry">
            <mxPoint x="1590" y="320" as="sourcePoint" />
            <mxPoint x="1640" y="230" as="targetPoint" />
          </mxGeometry>
        </mxCell>
        <mxCell id="eYLm4bAdgKjMFK-X197l-79" value="Effect Manager" style="ellipse;whiteSpace=wrap;html=1;fillColor=#6a00ff;strokeColor=#3700CC;fontColor=#ffffff;" vertex="1" parent="1">
          <mxGeometry x="-590" y="300" width="120" height="80" as="geometry" />
        </mxCell>
        <mxCell id="eYLm4bAdgKjMFK-X197l-80" value="" style="endArrow=none;html=1;rounded=0;exitX=0.5;exitY=0;exitDx=0;exitDy=0;entryX=0;entryY=0;entryDx=0;entryDy=0;" edge="1" parent="1" target="eYLm4bAdgKjMFK-X197l-1">
          <mxGeometry width="50" height="50" relative="1" as="geometry">
            <mxPoint x="-530" y="300" as="sourcePoint" />
            <mxPoint x="-90" y="180" as="targetPoint" />
          </mxGeometry>
        </mxCell>
        <mxCell id="eYLm4bAdgKjMFK-X197l-81" value="Not Defined" style="ellipse;whiteSpace=wrap;html=1;fillColor=#d5e8d4;strokeColor=#82b366;" vertex="1" parent="1">
          <mxGeometry x="280" y="780" width="120" height="80" as="geometry" />
        </mxCell>
        <mxCell id="eYLm4bAdgKjMFK-X197l-82" value="Wheel Rotation" style="ellipse;whiteSpace=wrap;html=1;fillColor=#d5e8d4;strokeColor=#82b366;" vertex="1" parent="1">
          <mxGeometry x="380" y="920" width="120" height="80" as="geometry" />
        </mxCell>
        <mxCell id="eYLm4bAdgKjMFK-X197l-83" value="Health Bar Look At Player" style="ellipse;whiteSpace=wrap;html=1;fillColor=#d5e8d4;strokeColor=#82b366;" vertex="1" parent="1">
          <mxGeometry x="170" y="920" width="120" height="80" as="geometry" />
        </mxCell>
        <mxCell id="eYLm4bAdgKjMFK-X197l-84" value="" style="endArrow=none;html=1;rounded=0;entryX=0.741;entryY=0.951;entryDx=0;entryDy=0;entryPerimeter=0;exitX=0.706;exitY=0.048;exitDx=0;exitDy=0;exitPerimeter=0;" edge="1" parent="1" source="eYLm4bAdgKjMFK-X197l-83">
          <mxGeometry width="50" height="50" relative="1" as="geometry">
            <mxPoint x="290" y="920" as="sourcePoint" />
            <mxPoint x="308" y="855" as="targetPoint" />
          </mxGeometry>
        </mxCell>
        <mxCell id="eYLm4bAdgKjMFK-X197l-85" value="" style="endArrow=none;html=1;rounded=0;entryX=0.741;entryY=0.951;entryDx=0;entryDy=0;entryPerimeter=0;exitX=0.5;exitY=0;exitDx=0;exitDy=0;exitPerimeter=0;" edge="1" source="eYLm4bAdgKjMFK-X197l-82" parent="1">
          <mxGeometry width="50" height="50" relative="1" as="geometry">
            <mxPoint x="440" y="915" as="sourcePoint" />
            <mxPoint x="380" y="850" as="targetPoint" />
          </mxGeometry>
        </mxCell>
        <mxCell id="eYLm4bAdgKjMFK-X197l-92" value="&lt;b&gt;&lt;font style=&quot;font-size: 20px;&quot;&gt;Cần tối ưu:&lt;/font&gt;&lt;/b&gt;&lt;br&gt;1. Pooling (số lượng Effect, Enemy, Bullet cần tạo trong 1 map) =&amp;gt; Hiện tại: 200, 200, 30)" style="shape=ext;double=1;rounded=1;whiteSpace=wrap;html=1;align=center;" vertex="1" parent="1">
          <mxGeometry x="-770" y="10" width="390" height="190" as="geometry" />
        </mxCell>
      </root>
    </mxGraphModel>
  </diagram>
</mxfile>
